<mxfile host="app.diagrams.net" modified="2023-09-12T08:50:33.616Z" agent="Mozilla/5.0 (Macintosh; Intel Mac OS X 10_15_7) AppleWebKit/537.36 (KHTML, like Gecko) Chrome/116.0.0.0 Safari/537.36 Edg/116.0.1938.76" etag="g3qwvXBH-NkjCa9z-wun" version="21.7.4" type="device">
  <diagram name="Page-1" id="aP4xpSwZqgnwJ2yMxaQ7">
    <mxGraphModel dx="2074" dy="1070" grid="1" gridSize="10" guides="1" tooltips="1" connect="1" arrows="1" fold="1" page="1" pageScale="1" pageWidth="827" pageHeight="1169" math="0" shadow="0">
      <root>
        <mxCell id="0" />
        <mxCell id="1" parent="0" />
        <mxCell id="vogE3yvGKdfBUrHDdPil-5" value="LINKED TO" style="ellipse;whiteSpace=wrap;html=1;" parent="1" vertex="1">
          <mxGeometry x="340" y="260" width="120" height="80" as="geometry" />
        </mxCell>
        <mxCell id="vogE3yvGKdfBUrHDdPil-6" value="" style="endArrow=none;html=1;rounded=0;exitX=0;exitY=1;exitDx=0;exitDy=0;" parent="1" source="vogE3yvGKdfBUrHDdPil-16" target="vogE3yvGKdfBUrHDdPil-5" edge="1">
          <mxGeometry width="50" height="50" relative="1" as="geometry">
            <mxPoint x="260" y="300" as="sourcePoint" />
            <mxPoint x="400" y="430" as="targetPoint" />
          </mxGeometry>
        </mxCell>
        <mxCell id="vogE3yvGKdfBUrHDdPil-7" value="" style="endArrow=none;html=1;rounded=0;exitX=0;exitY=0.5;exitDx=0;exitDy=0;entryX=1;entryY=0.5;entryDx=0;entryDy=0;" parent="1" target="vogE3yvGKdfBUrHDdPil-5" edge="1">
          <mxGeometry width="50" height="50" relative="1" as="geometry">
            <mxPoint x="580" y="300" as="sourcePoint" />
            <mxPoint x="440" y="530" as="targetPoint" />
          </mxGeometry>
        </mxCell>
        <mxCell id="vogE3yvGKdfBUrHDdPil-8" value="HAS A" style="ellipse;whiteSpace=wrap;html=1;" parent="1" vertex="1">
          <mxGeometry x="630" y="480" width="120" height="80" as="geometry" />
        </mxCell>
        <mxCell id="vogE3yvGKdfBUrHDdPil-9" value="" style="endArrow=none;html=1;rounded=0;exitX=0.5;exitY=0;exitDx=0;exitDy=0;entryX=0.5;entryY=1;entryDx=0;entryDy=0;" parent="1" target="vogE3yvGKdfBUrHDdPil-8" edge="1">
          <mxGeometry width="50" height="50" relative="1" as="geometry">
            <mxPoint x="690" y="660" as="sourcePoint" />
            <mxPoint x="650" y="480" as="targetPoint" />
          </mxGeometry>
        </mxCell>
        <mxCell id="vogE3yvGKdfBUrHDdPil-10" value="" style="endArrow=none;html=1;rounded=0;exitX=0.5;exitY=0;exitDx=0;exitDy=0;" parent="1" source="vogE3yvGKdfBUrHDdPil-8" edge="1">
          <mxGeometry width="50" height="50" relative="1" as="geometry">
            <mxPoint x="390" y="580" as="sourcePoint" />
            <mxPoint x="690" y="400" as="targetPoint" />
            <Array as="points">
              <mxPoint x="690" y="470" />
            </Array>
          </mxGeometry>
        </mxCell>
        <mxCell id="vogE3yvGKdfBUrHDdPil-16" value="0, N" style="text;strokeColor=none;align=center;fillColor=none;html=1;verticalAlign=middle;whiteSpace=wrap;rounded=0;" parent="1" vertex="1">
          <mxGeometry x="250" y="270" width="60" height="30" as="geometry" />
        </mxCell>
        <mxCell id="vogE3yvGKdfBUrHDdPil-18" value="0, N" style="text;strokeColor=none;align=center;fillColor=none;html=1;verticalAlign=middle;whiteSpace=wrap;rounded=0;" parent="1" vertex="1">
          <mxGeometry x="520" y="270" width="60" height="30" as="geometry" />
        </mxCell>
        <mxCell id="vogE3yvGKdfBUrHDdPil-19" value="1, N" style="text;strokeColor=none;align=center;fillColor=none;html=1;verticalAlign=middle;whiteSpace=wrap;rounded=0;" parent="1" vertex="1">
          <mxGeometry x="630" y="400" width="60" height="30" as="geometry" />
        </mxCell>
        <mxCell id="vogE3yvGKdfBUrHDdPil-20" value="0, N" style="text;strokeColor=none;align=center;fillColor=none;html=1;verticalAlign=middle;whiteSpace=wrap;rounded=0;" parent="1" vertex="1">
          <mxGeometry x="580" y="600" width="60" height="30" as="geometry" />
        </mxCell>
        <mxCell id="vogE3yvGKdfBUrHDdPil-27" value="USER" style="swimlane;whiteSpace=wrap;html=1;" parent="1" vertex="1">
          <mxGeometry x="90" y="210" width="160" height="180" as="geometry" />
        </mxCell>
        <mxCell id="vogE3yvGKdfBUrHDdPil-29" value="user_id&lt;br&gt;&lt;br&gt;user_username&lt;br&gt;&lt;br&gt;user_password" style="text;html=1;align=left;verticalAlign=middle;resizable=0;points=[];autosize=1;strokeColor=none;fillColor=none;" parent="vogE3yvGKdfBUrHDdPil-27" vertex="1">
          <mxGeometry x="40" y="45" width="110" height="90" as="geometry" />
        </mxCell>
        <mxCell id="vogE3yvGKdfBUrHDdPil-30" value="POKEMON" style="swimlane;whiteSpace=wrap;html=1;" parent="1" vertex="1">
          <mxGeometry x="580" y="200" width="200" height="200" as="geometry" />
        </mxCell>
        <mxCell id="vogE3yvGKdfBUrHDdPil-28" value="pokemon_id&lt;br&gt;pokemon_name&lt;br&gt;pokemon_picture&lt;br&gt;pokemon_hp&lt;br&gt;pokemon_attack&lt;br&gt;pokemon_defense&lt;br&gt;pokemon_attackspe&lt;br&gt;pokemon_defensespe&lt;br&gt;pokemon_speed&lt;br&gt;pokemon_number" style="text;html=1;align=left;verticalAlign=middle;resizable=0;points=[];autosize=1;strokeColor=none;fillColor=none;strokeWidth=0;spacingTop=0;" parent="vogE3yvGKdfBUrHDdPil-30" vertex="1">
          <mxGeometry x="40" y="30" width="140" height="160" as="geometry" />
        </mxCell>
        <mxCell id="vogE3yvGKdfBUrHDdPil-33" value="TYPE" style="swimlane;whiteSpace=wrap;html=1;" parent="1" vertex="1">
          <mxGeometry x="590" y="660" width="200" height="200" as="geometry" />
        </mxCell>
        <mxCell id="vogE3yvGKdfBUrHDdPil-34" value="type_id&lt;br&gt;&lt;br&gt;&lt;div style=&quot;&quot;&gt;&lt;span style=&quot;background-color: initial;&quot;&gt;type_name&lt;/span&gt;&lt;/div&gt;" style="text;html=1;align=left;verticalAlign=middle;resizable=0;points=[];autosize=1;strokeColor=none;fillColor=none;" parent="vogE3yvGKdfBUrHDdPil-33" vertex="1">
          <mxGeometry x="70" y="70" width="80" height="60" as="geometry" />
        </mxCell>
      </root>
    </mxGraphModel>
  </diagram>
</mxfile>
